HIERARCHY
ROOT Hip
{
	OFFSET 0.000000 0.000000 0.000000
	CHANNELS 6 Xposition Yposition Zposition Xrotation Yrotation Zrotation
	JOINT LowerSpine
	{
		OFFSET 0.000000 5.515803 9.266300
		CHANNELS 6 Xposition Yposition Zposition Xrotation Yrotation Zrotation
		JOINT MiddleSpine
		{
			OFFSET 0.000000 -0.397594 8.456196
			CHANNELS 6 Xposition Yposition Zposition Xrotation Yrotation Zrotation
			JOINT Chest
			{
				OFFSET 0.000000 2.096201 10.463509
				CHANNELS 6 Xposition Yposition Zposition Xrotation Yrotation Zrotation
				JOINT Neck
				{
					OFFSET 0.000000 0.441311 23.579292
					CHANNELS 6 Xposition Yposition Zposition Xrotation Yrotation Zrotation
					JOINT Head
					{
						OFFSET -0.000100 -3.621794 13.315506
						CHANNELS 6 Xposition Yposition Zposition Xrotation Yrotation Zrotation
						End Site
						{
							OFFSET 0.000100 -0.555390 18.605103
						}
					}
				}
				JOINT LClavicle
				{
					OFFSET 2.142500 -7.016488 22.755196
					CHANNELS 6 Xposition Yposition Zposition Xrotation Yrotation Zrotation
					JOINT LShoulder
					{
						OFFSET 12.516600 5.281301 3.263897
						CHANNELS 6 Xposition Yposition Zposition Xrotation Yrotation Zrotation
						JOINT LForearm
						{
							OFFSET 29.541901 0.256001 -0.104698
							CHANNELS 6 Xposition Yposition Zposition Xrotation Yrotation Zrotation
							JOINT LHand
							{
								OFFSET 24.644199 0.147600 0.071499
								CHANNELS 6 Xposition Yposition Zposition Xrotation Yrotation Zrotation
								JOINT LFinger1
								{
									OFFSET 9.551399 -2.652902 0.835300
									CHANNELS 6 Xposition Yposition Zposition Xrotation Yrotation Zrotation
									JOINT LFinger11
									{
										OFFSET 3.572701 -0.629500 -0.871197
										CHANNELS 6 Xposition Yposition Zposition Xrotation Yrotation Zrotation
										JOINT LFinger12
										{
											OFFSET 2.439003 -0.429900 -0.594898
											CHANNELS 6 Xposition Yposition Zposition Xrotation Yrotation Zrotation
											End Site
											{
												OFFSET 1.735603 -0.281500 -0.518101
											}
										}
									}
								}
								JOINT LFinger2
								{
									OFFSET 9.693901 -0.230999 0.964600
									CHANNELS 6 Xposition Yposition Zposition Xrotation Yrotation Zrotation
									JOINT LFinger21
									{
										OFFSET 4.417397 0.026100 0.012299
										CHANNELS 6 Xposition Yposition Zposition Xrotation Yrotation Zrotation
										JOINT LFinger22
										{
											OFFSET 2.448601 0.014900 0.007500
											CHANNELS 6 Xposition Yposition Zposition Xrotation Yrotation Zrotation
											End Site
											{
												OFFSET 2.199303 -0.002900 -0.155300
											}
										}
									}
								}
								JOINT LFinger3
								{
									OFFSET 9.186996 2.173500 0.643799
									CHANNELS 6 Xposition Yposition Zposition Xrotation Yrotation Zrotation
									JOINT LFinger31
									{
										OFFSET 4.008400 0.251000 -0.202900
										CHANNELS 6 Xposition Yposition Zposition Xrotation Yrotation Zrotation
										JOINT LFinger32
										{
											OFFSET 2.284203 0.143500 -0.114899
											CHANNELS 6 Xposition Yposition Zposition Xrotation Yrotation Zrotation
											End Site
											{
												OFFSET 2.019600 0.095499 -0.248299
											}
										}
									}
								}
								JOINT LFinger4
								{
									OFFSET 8.525200 3.753599 -0.647804
									CHANNELS 6 Xposition Yposition Zposition Xrotation Yrotation Zrotation
									JOINT LFinger41
									{
										OFFSET 2.465500 0.680600 -0.514198
										CHANNELS 6 Xposition Yposition Zposition Xrotation Yrotation Zrotation
										JOINT LFinger42
										{
											OFFSET 1.807999 0.499399 -0.376499
											CHANNELS 6 Xposition Yposition Zposition Xrotation Yrotation Zrotation
											End Site
											{
												OFFSET 1.604698 0.368200 -0.440899
											}
										}
									}
								}
								JOINT LFinger0
								{
									OFFSET 1.975899 -1.497902 -1.495499
									CHANNELS 6 Xposition Yposition Zposition Xrotation Yrotation Zrotation
									JOINT LFinger01
									{
										OFFSET 3.678703 -2.773499 -1.208096
										CHANNELS 6 Xposition Yposition Zposition Xrotation Yrotation Zrotation
										JOINT LFinger02
										{
											OFFSET 2.422401 -1.745201 -0.866798
											CHANNELS 6 Xposition Yposition Zposition Xrotation Yrotation Zrotation
											End Site
											{
												OFFSET 1.781303 -1.219800 -0.613201
											}
										}
									}
								}
							}
						}
					}
				}
				JOINT RClavicle
				{
					OFFSET -2.142500 -7.016387 22.755196
					CHANNELS 6 Xposition Yposition Zposition Xrotation Yrotation Zrotation
					JOINT RShoulder
					{
						OFFSET -12.518800 5.282200 3.264496
						CHANNELS 6 Xposition Yposition Zposition Xrotation Yrotation Zrotation
						JOINT RForearm
						{
							OFFSET -29.541901 0.256001 -0.104698
							CHANNELS 6 Xposition Yposition Zposition Xrotation Yrotation Zrotation
							JOINT RHand
							{
								OFFSET -24.644196 0.147600 0.071499
								CHANNELS 6 Xposition Yposition Zposition Xrotation Yrotation Zrotation
								JOINT RFinger1
								{
									OFFSET -9.551399 -2.652902 0.835400
									CHANNELS 6 Xposition Yposition Zposition Xrotation Yrotation Zrotation
									JOINT RFinger11
									{
										OFFSET -3.572701 -0.629500 -0.871197
										CHANNELS 6 Xposition Yposition Zposition Xrotation Yrotation Zrotation
										JOINT RFinger12
										{
											OFFSET -2.439003 -0.429900 -0.595001
											CHANNELS 6 Xposition Yposition Zposition Xrotation Yrotation Zrotation
											End Site
											{
												OFFSET -1.735603 -0.281500 -0.518101
											}
										}
									}
								}
								JOINT RFinger2
								{
									OFFSET -9.693901 -0.230999 0.964699
									CHANNELS 6 Xposition Yposition Zposition Xrotation Yrotation Zrotation
									JOINT RFinger21
									{
										OFFSET -4.417503 0.026100 0.012299
										CHANNELS 6 Xposition Yposition Zposition Xrotation Yrotation Zrotation
										JOINT RFinger22
										{
											OFFSET -2.448601 0.015000 0.007500
											CHANNELS 6 Xposition Yposition Zposition Xrotation Yrotation Zrotation
											End Site
											{
												OFFSET -2.199303 -0.002900 -0.155300
											}
										}
									}
								}
								JOINT RFinger3
								{
									OFFSET -9.186996 2.173501 0.643799
									CHANNELS 6 Xposition Yposition Zposition Xrotation Yrotation Zrotation
									JOINT RFinger31
									{
										OFFSET -4.008400 0.251000 -0.202900
										CHANNELS 6 Xposition Yposition Zposition Xrotation Yrotation Zrotation
										JOINT RFinger32
										{
											OFFSET -2.284203 0.143500 -0.114899
											CHANNELS 6 Xposition Yposition Zposition Xrotation Yrotation Zrotation
											End Site
											{
												OFFSET -2.019600 0.095499 -0.248299
											}
										}
									}
								}
								JOINT RFinger4
								{
									OFFSET -8.525200 3.753598 -0.647804
									CHANNELS 6 Xposition Yposition Zposition Xrotation Yrotation Zrotation
									JOINT RFinger41
									{
										OFFSET -2.465500 0.680600 -0.514099
										CHANNELS 6 Xposition Yposition Zposition Xrotation Yrotation Zrotation
										JOINT RFinger42
										{
											OFFSET -1.807999 0.499399 -0.376400
											CHANNELS 6 Xposition Yposition Zposition Xrotation Yrotation Zrotation
											End Site
											{
												OFFSET -1.604698 0.368200 -0.440899
											}
										}
									}
								}
								JOINT RFinger0
								{
									OFFSET -1.975899 -1.497801 -1.495399
									CHANNELS 6 Xposition Yposition Zposition Xrotation Yrotation Zrotation
									JOINT RFinger01
									{
										OFFSET -3.678703 -2.773601 -1.208298
										CHANNELS 6 Xposition Yposition Zposition Xrotation Yrotation Zrotation
										JOINT RFinger02
										{
											OFFSET -2.422302 -1.745200 -0.866699
											CHANNELS 6 Xposition Yposition Zposition Xrotation Yrotation Zrotation
											End Site
											{
												OFFSET -1.781303 -1.219800 -0.613201
											}
										}
									}
								}
							}
						}
					}
				}
			}
		}
	}
	JOINT RThigh
	{
		OFFSET -10.956100 0.898701 4.188600
		CHANNELS 6 Xposition Yposition Zposition Xrotation Yrotation Zrotation
		JOINT RShin
		{
			OFFSET -0.793200 -0.000020 -43.115398
			CHANNELS 6 Xposition Yposition Zposition Xrotation Yrotation Zrotation
			JOINT RFoot
			{
				OFFSET 0.000000 -0.000019 -42.336796
				CHANNELS 6 Xposition Yposition Zposition Xrotation Yrotation Zrotation
				JOINT RToe
				{
					OFFSET 0.000000 -9.730402 -4.653191
					CHANNELS 6 Xposition Yposition Zposition Xrotation Yrotation Zrotation
					End Site
					{
						OFFSET 0.000000 -6.527802 -0.933151
					}
				}
			}
		}
	}
	JOINT LThigh
	{
		OFFSET 10.955900 0.898801 4.188900
		CHANNELS 6 Xposition Yposition Zposition Xrotation Yrotation Zrotation
		JOINT LShin
		{
			OFFSET 0.793300 -0.000020 -43.115700
			CHANNELS 6 Xposition Yposition Zposition Xrotation Yrotation Zrotation
			JOINT LFoot
			{
				OFFSET 0.000000 -0.000019 -42.336796
				CHANNELS 6 Xposition Yposition Zposition Xrotation Yrotation Zrotation
				JOINT LToe
				{
					OFFSET 0.000000 -9.730501 -4.653191
					CHANNELS 6 Xposition Yposition Zposition Xrotation Yrotation Zrotation
					End Site
					{
						OFFSET 0.000000 -6.527802 0.000000
					}
				}
			}
		}
	}
}
MOTION
Frames: 4
Frame Time: 0.041667
-0.116900 -3.056973 77.890816 8.700780 2.139239 0.578372 0.000000 5.515809 9.266290 -1.214818 0.912686 0.563221 0.000000 -0.397597 8.456157 -1.214820 0.912686 0.563220 0.000002 2.096200 10.463510 -1.214822 0.912686 0.563220 -0.000001 0.441321 23.579302 -15.131774 -4.321815 -1.815988 -0.000099 -3.621774 13.315459 -1.051564 -2.932480 -0.114505 2.142494 -7.016476 22.755188 -0.000011 14.525874 -0.000022 12.516602 5.281309 3.263887 29.323754 51.241387 -30.194774 29.541914 0.256005 -0.104681 0.056971 -0.004093 -21.344377 24.644222 0.147594 0.071500 -0.000002 0.000000 0.000003 9.551387 -2.652904 0.835319 0.000003 0.000003 -0.000000 3.572702 -0.629498 -0.871178 -0.000001 0.000002 0.000011 2.438986 -0.429891 -0.594915 0.000001 -0.000002 0.000002 9.693863 -0.231006 0.964595 0.000000 -0.000000 -0.000003 4.417405 0.026111 0.012294 0.000001 0.000001 0.000003 2.448600 0.014899 0.007484 0.000002 -0.000001 0.000003 9.186997 2.173497 0.643796 -0.000003 0.000002 0.000008 4.008390 0.251001 -0.202929 0.000004 -0.000002 0.000001 2.284211 0.143500 -0.114895 0.000004 0.000001 -0.000001 8.525183 3.753584 -0.647800 0.000004 -0.000002 -0.000002 2.465513 0.680605 -0.514231 -0.000000 -0.000001 0.000007 1.807988 0.499388 -0.376511 -0.000002 -0.000003 0.000003 1.975887 -1.497906 -1.495524 0.000003 0.000005 0.000009 3.678695 -2.773495 -1.208087 0.000008 0.000008 0.000001 2.422392 -1.745182 -0.866792 -0.000011 0.000007 0.000005 -2.142495 -7.016376 22.755177 0.000004 -14.491623 0.000018 -12.518772 5.282232 3.264476 66.295530 -18.121272 61.870169 -29.541889 0.256005 -0.104677 0.054327 0.001255 17.775417 -24.644157 0.147596 0.071484 -0.000004 0.000001 0.000002 -9.551373 -2.652906 0.835400 0.000000 0.000003 -0.000003 -3.572686 -0.629496 -0.871205 0.000004 0.000007 -0.000003 -2.438993 -0.429897 -0.594990 -0.000010 0.000010 -0.000002 -9.693871 -0.231002 0.964698 0.000003 -0.000001 0.000001 -4.417487 0.026093 0.012304 -0.000003 0.000001 -0.000000 -2.448652 0.014995 0.007492 0.000003 -0.000006 -0.000002 -9.186990 2.173495 0.643793 0.000002 -0.000001 -0.000000 -4.008407 0.250998 -0.202880 -0.000001 0.000001 -0.000000 -2.284178 0.143509 -0.114893 -0.000000 0.000002 -0.000002 -8.525186 3.753594 -0.647814 0.000004 0.000000 0.000006 -2.465458 0.680587 -0.514103 0.000007 0.000005 0.000007 -1.807956 0.499392 -0.376396 -0.000006 0.000004 -0.000003 -1.975887 -1.497799 -1.495407 -0.000003 -0.000004 -0.000010 -3.678697 -2.773592 -1.208291 -0.000014 0.000008 0.000012 -2.422270 -1.745198 -0.866703 -0.000007 0.000002 -0.000009 -10.956100 0.898705 4.188597 -16.915602 -2.255668 0.335222 -0.793196 -0.000016 -43.115387 5.876959 -0.000002 0.000001 -0.000000 -0.000020 -42.336784 0.528012 -0.533958 1.129737 0.000004 -9.730404 -4.653183 0.000002 0.000000 0.000001 10.955895 0.898810 4.188919 -12.655925 -1.362277 1.670481 0.793296 -0.000019 -43.115692 1.451011 -0.000000 0.000000 0.000000 -0.000011 -42.336784 0.492078 -0.298809 0.631830 -0.000001 -9.730496 -4.653176 0.000006 -0.000000 0.000000 
-0.146700 -3.098167 77.909149 8.626083 2.198821 0.649490 -0.000000 5.515817 9.266297 -1.203424 0.908900 0.556277 -0.000002 -0.397593 8.456212 -1.203420 0.908899 0.556278 -0.000001 2.096200 10.463517 -1.203431 0.908899 0.556278 0.000002 0.441306 23.579323 -15.065869 -4.389112 -1.841307 -0.000098 -3.621790 13.315523 -2.632309 -4.226285 -0.223493 2.142496 -7.016495 22.755230 -0.000002 14.540761 -0.000016 12.516594 5.281303 3.263910 30.817800 51.853283 -31.393346 29.541910 0.256005 -0.104693 0.048551 -0.004781 -21.364688 24.644176 0.147597 0.071498 -0.000001 -0.000002 -0.000007 9.551405 -2.652898 0.835319 0.000003 -0.000001 0.000003 3.572678 -0.629501 -0.871181 0.000003 0.000000 0.000003 2.439022 -0.429895 -0.594911 0.000013 0.000004 0.000004 9.693888 -0.231001 0.964605 -0.000001 0.000002 -0.000000 4.417411 0.026098 0.012294 0.000002 -0.000000 0.000002 2.448631 0.014899 0.007501 -0.000000 -0.000001 -0.000005 9.187029 2.173503 0.643796 -0.000000 0.000003 0.000005 4.008370 0.251002 -0.202911 -0.000002 0.000000 -0.000001 2.284181 0.143497 -0.114891 0.000002 0.000001 -0.000002 8.525199 3.753589 -0.647803 0.000001 0.000000 0.000003 2.465483 0.680600 -0.514195 -0.000003 -0.000002 0.000001 1.807979 0.499392 -0.376499 0.000002 -0.000004 0.000003 1.975886 -1.497894 -1.495511 -0.000010 0.000012 0.000007 3.678672 -2.773489 -1.208103 -0.000005 -0.000001 -0.000010 2.422389 -1.745183 -0.866771 -0.000007 0.000003 0.000003 -2.142496 -7.016398 22.755257 0.000005 -14.500159 0.000017 -12.518766 5.282228 3.264510 66.268626 -18.417069 61.708512 -29.541903 0.255991 -0.104713 0.051807 0.001500 17.917797 -24.644161 0.147598 0.071478 -0.000003 -0.000003 -0.000001 -9.551395 -2.652898 0.835402 0.000001 -0.000004 -0.000003 -3.572679 -0.629502 -0.871195 0.000004 0.000007 -0.000002 -2.439009 -0.429895 -0.594996 -0.000006 0.000010 -0.000003 -9.693904 -0.231002 0.964680 -0.000001 -0.000003 -0.000001 -4.417498 0.026098 0.012295 0.000004 -0.000002 0.000001 -2.448610 0.014998 0.007493 0.000002 -0.000002 0.000001 -9.187020 2.173499 0.643784 0.000003 -0.000001 -0.000002 -4.008398 0.251003 -0.202909 0.000003 0.000002 0.000001 -2.284188 0.143504 -0.114888 0.000001 -0.000001 -0.000001 -8.525210 3.753592 -0.647818 -0.000000 -0.000003 -0.000001 -2.465467 0.680587 -0.514087 0.000003 0.000003 0.000005 -1.807988 0.499398 -0.376388 -0.000009 0.000002 -0.000006 -1.975898 -1.497793 -1.495415 -0.000009 -0.000007 0.000005 -3.678735 -2.773586 -1.208308 -0.000015 0.000008 0.000001 -2.422322 -1.745218 -0.866699 -0.000002 -0.000005 -0.000003 -10.956100 0.898718 4.188599 -16.703810 -2.301049 0.384171 -0.793201 -0.000017 -43.115372 5.665031 -0.000001 0.000002 0.000002 -0.000018 -42.336773 0.756039 -0.509505 1.084290 0.000007 -9.730399 -4.653152 0.000005 -0.000000 0.000000 10.955892 0.898820 4.188900 -12.597195 -1.407859 1.654382 0.793297 -0.000020 -43.115719 1.492729 -0.000001 -0.000000 -0.000001 -0.000006 -42.336807 0.535404 -0.332056 0.702709 -0.000001 -9.730506 -4.653168 0.000007 -0.000000 0.000000 
-0.181900 -3.142776 77.927109 8.549279 2.262018 0.717420 -0.000002 5.515804 9.266321 -1.166742 0.897666 0.537062 -0.000000 -0.397595 8.456220 -1.166743 0.897664 0.537063 0.000001 2.096199 10.463522 -1.166736 0.897665 0.537062 0.000002 0.441295 23.579304 -14.994750 -4.460565 -1.868046 -0.000099 -3.621808 13.315584 -3.673154 -5.072469 -0.314600 2.142498 -7.016494 22.755219 -0.000002 14.545096 -0.000018 12.516584 5.281307 3.263885 32.177421 52.435451 -32.312829 29.541874 0.256002 -0.104706 0.047465 -0.005455 -21.983314 24.644190 0.147597 0.071481 -0.000007 -0.000001 -0.000000 9.551422 -2.652900 0.835303 0.000004 0.000001 0.000006 3.572691 -0.629501 -0.871188 -0.000011 -0.000002 0.000006 2.438997 -0.429905 -0.594899 -0.000001 0.000002 -0.000003 9.693909 -0.230995 0.964588 0.000001 0.000001 0.000007 4.417405 0.026102 0.012309 0.000004 0.000001 0.000001 2.448586 0.014889 0.007500 0.000002 0.000001 0.000002 9.187032 2.173497 0.643788 0.000000 0.000006 0.000006 4.008385 0.250996 -0.202907 0.000004 0.000001 0.000004 2.284181 0.143494 -0.114902 -0.000001 0.000001 -0.000004 8.525232 3.753584 -0.647819 -0.000002 0.000002 0.000001 2.465464 0.680589 -0.514205 0.000005 0.000005 0.000012 1.807979 0.499394 -0.376523 -0.000004 -0.000004 -0.000000 1.975899 -1.497902 -1.495522 -0.000007 0.000009 0.000007 3.678724 -2.773478 -1.208099 0.000001 -0.000003 -0.000014 2.422397 -1.745190 -0.866791 0.000001 0.000003 0.000002 -2.142491 -7.016398 22.755203 0.000002 -14.507016 0.000034 -12.518780 5.282239 3.264451 66.287430 -18.698112 61.642608 -29.541870 0.256002 -0.104695 0.045344 0.002106 17.844159 -24.644238 0.147602 0.071499 -0.000003 -0.000005 0.000001 -9.551394 -2.652896 0.835420 -0.000004 -0.000002 -0.000003 -3.572702 -0.629499 -0.871202 0.000007 0.000006 -0.000003 -2.438981 -0.429898 -0.594996 -0.000004 0.000007 -0.000005 -9.693873 -0.231001 0.964687 0.000003 -0.000003 -0.000001 -4.417505 0.026094 0.012285 0.000002 -0.000002 -0.000001 -2.448625 0.014991 0.007489 0.000000 -0.000001 -0.000000 -9.187005 2.173506 0.643796 0.000001 -0.000002 -0.000001 -4.008416 0.251000 -0.202906 -0.000000 -0.000001 -0.000000 -2.284205 0.143504 -0.114889 -0.000001 -0.000003 -0.000001 -8.525205 3.753598 -0.647805 -0.000000 -0.000005 -0.000000 -2.465503 0.680589 -0.514099 0.000012 -0.000002 0.000007 -1.807951 0.499389 -0.376396 0.000000 0.000001 -0.000003 -1.975882 -1.497792 -1.495402 -0.000006 -0.000007 -0.000001 -3.678701 -2.773584 -1.208311 -0.000004 0.000003 -0.000003 -2.422324 -1.745207 -0.866714 -0.000006 0.000002 0.000001 -10.956105 0.898710 4.188630 -16.450649 -2.362889 0.435129 -0.793197 -0.000022 -43.115398 5.334496 -0.000001 0.000002 0.000001 -0.000021 -42.336773 1.056557 -0.389430 0.835299 0.000003 -9.730398 -4.653183 -0.000002 -0.000000 0.000000 10.955898 0.898807 4.188930 -12.529468 -1.464302 1.631170 0.793299 -0.000018 -43.115700 1.525155 -0.000000 -0.000000 0.000001 -0.000009 -42.336823 0.607404 -0.326581 0.692505 -0.000006 -9.730503 -4.653183 0.000007 -0.000000 0.000000 
-0.248600 -3.182976 77.948433 8.474173 2.333976 0.783400 0.000000 5.515798 9.266285 -1.125472 0.885886 0.519159 0.000001 -0.397601 8.456225 -1.125474 0.885884 0.519159 0.000001 2.096201 10.463505 -1.125468 0.885884 0.519158 -0.000002 0.441327 23.579290 -14.945827 -4.547691 -1.902296 -0.000099 -3.621766 13.315415 -2.517552 -3.896909 -0.202277 2.142493 -7.016471 22.755199 -0.000005 14.548878 -0.000015 12.516581 5.281314 3.263877 33.381901 52.766763 -33.243238 29.541874 0.256004 -0.104682 0.053446 -0.005406 -22.256627 24.644224 0.147593 0.071495 -0.000002 0.000002 0.000005 9.551414 -2.652905 0.835309 0.000003 -0.000008 0.000006 3.572687 -0.629506 -0.871177 0.000006 0.000002 -0.000004 2.438983 -0.429901 -0.594892 0.000001 0.000004 0.000003 9.693885 -0.231002 0.964591 0.000004 -0.000002 -0.000007 4.417419 0.026094 0.012300 0.000004 -0.000000 0.000001 2.448593 0.014901 0.007500 -0.000003 0.000000 0.000005 9.187034 2.173496 0.643809 -0.000000 -0.000001 0.000002 4.008415 0.251000 -0.202932 0.000003 0.000001 0.000004 2.284179 0.143505 -0.114895 -0.000006 -0.000001 -0.000002 8.525206 3.753578 -0.647814 0.000005 -0.000002 -0.000001 2.465487 0.680591 -0.514198 0.000003 0.000004 0.000005 1.807957 0.499397 -0.376514 -0.000001 -0.000003 0.000003 1.975898 -1.497914 -1.495511 -0.000001 0.000007 -0.000005 3.678719 -2.773493 -1.208103 0.000006 0.000000 -0.000002 2.422389 -1.745184 -0.866792 0.000001 0.000003 -0.000012 -2.142494 -7.016372 22.755177 -0.000006 -14.511878 0.000020 -12.518761 5.282247 3.264489 66.322134 -18.940972 61.648584 -29.541903 0.255997 -0.104692 0.042517 0.002416 17.684599 -24.644167 0.147603 0.071465 -0.000000 -0.000003 0.000001 -9.551399 -2.652905 0.835419 0.000002 0.000000 -0.000005 -3.572671 -0.629505 -0.871203 0.000008 0.000007 -0.000000 -2.438955 -0.429894 -0.595002 -0.000004 0.000011 -0.000000 -9.693878 -0.231002 0.964703 -0.000001 0.000000 -0.000000 -4.417514 0.026094 0.012301 0.000006 -0.000003 0.000001 -2.448616 0.015002 0.007488 -0.000002 -0.000000 0.000001 -9.186997 2.173502 0.643804 0.000001 -0.000002 -0.000002 -4.008424 0.250994 -0.202906 0.000003 -0.000002 -0.000000 -2.284234 0.143501 -0.114886 0.000004 -0.000001 0.000001 -8.525179 3.753592 -0.647810 0.000007 -0.000002 0.000001 -2.465494 0.680594 -0.514085 0.000008 -0.000001 0.000006 -1.807975 0.499384 -0.376398 0.000013 0.000001 -0.000002 -1.975899 -1.497797 -1.495407 -0.000013 -0.000009 -0.000004 -3.678699 -2.773590 -1.208277 -0.000005 0.000013 -0.000000 -2.422302 -1.745208 -0.866708 -0.000001 0.000009 0.000008 -10.956106 0.898694 4.188577 -16.265734 -2.457263 0.486885 -0.793198 -0.000021 -43.115410 5.172110 -0.000001 -0.000000 0.000000 -0.000019 -42.336773 1.322219 -0.284692 0.612725 0.000001 -9.730400 -4.653175 0.000000 0.000000 -0.000000 10.955898 0.898795 4.188881 -12.437269 -1.542785 1.606739 0.793301 -0.000018 -43.115688 1.490582 -0.000000 -0.000000 0.000002 -0.000005 -42.336796 0.677199 -0.334255 0.709574 -0.000005 -9.730506 -4.653183 0.000005 -0.000000 0.000000 
